PathFileType  4	(X/Y/Z) C:\Users\antoi\Documents\MyRepositories\mobilecap\ResultsAnalysis
DataRate	CameraRate	NumFrames	NumMarkers	Units	OrigDataRate	OrigDataStartFrame	OrigNumFrames
100.0	100.0	5	51	mm	100.0	19	145
Frame#	Time	r_knee			r_shank_antsup			r_ankle			r_calc			r_5meta			r_toe			L_knee			L_shank_antsup			L_ankle			L_calc			L_5meta			L_toe			r_sh2			r_sh3			r_sh4			L_sh2			L_sh3			r_thigh1			r_thigh2			r_thigh3			r_thigh4			r_thigh5			L_thigh1			L_thigh2			L_thigh3			L_thigh4			r.ASIS			r.PSIS			L.ASIS			L.PSIS			C7			R_Shoulder			L_Shoulder			R_Sternum			L_Sternum			R_humerus			R_elbow_med			R_elbow_lat			R_forearm			R_wrist_radius			R_wrist_ulna			L_humerus			L_elbow_med			L_elbow_lat			L_forearm			L_wrist_radius			L_wrist_ulna			R_HJC			L_HJC			R_HJC_reg			L_HJC_reg			
		X1	Y1	Z1	X2	Y2	Z2	X3	Y3	Z3	X4	Y4	Z4	X5	Y5	Z5	X6	Y6	Z6	X7	Y7	Z7	X8	Y8	Z8	X9	Y9	Z9	X10	Y10	Z10	X11	Y11	Z11	X12	Y12	Z12	X13	Y13	Z13	X14	Y14	Z14	X15	Y15	Z15	X16	Y16	Z16	X17	Y17	Z17	X18	Y18	Z18	X19	Y19	Z19	X20	Y20	Z20	X21	Y21	Z21	X22	Y22	Z22	X23	Y23	Z23	X24	Y24	Z24	X25	Y25	Z25	X26	Y26	Z26	X27	Y27	Z27	X28	Y28	Z28	X29	Y29	Z29	X30	Y30	Z30	X31	Y31	Z31	X32	Y32	Z32	X33	Y33	Z33	X34	Y34	Z34	X35	Y35	Z35	X36	Y36	Z36	X37	Y37	Z37	X38	Y38	Z38	X39	Y39	Z39	X40	Y40	Z40	X41	Y41	Z41	X42	Y42	Z42	X43	Y43	Z43	X44	Y44	Z44	X45	Y45	Z45	X46	Y46	Z46	X47	Y47	Z47	X48	Y48	Z48	X49	Y49	Z49	X50	Y50	Z50	X51	Y51	Z51	

19	0.18000000	115.55474	499.91177	-62.31393	157.52939	437.40114	-95.63053	131.65933	93.49008	-89.49011	57.81310	66.14190	-106.36307	242.05561	45.15601	-101.71543	267.35350	79.01488	-167.97828	-116.28412	456.29576	-333.62828	-156.31207	367.09862	-339.21652	-437.80835	234.78991	-291.40678	-486.05352	288.62529	-241.98288	-468.12338	108.77226	-310.80923	-418.82853	83.77836	-263.10499	157.74966	322.30372	-72.02162	93.22604	438.99368	-40.79616	90.71347	326.48202	-38.52282	-199.94264	444.96455	-332.06437	-300.87588	376.18362	-327.96142	78.37040	819.50210	-24.84753	108.66471	710.71423	-39.08593	70.62043	674.35833	2.87748	-20.23794	784.88592	24.21096	13.45147	674.54848	8.39308	-81.87149	717.64521	-364.24321	-72.98203	581.64888	-352.12998	-170.75162	714.03107	-290.26557	-162.33855	574.03757	-291.53225	42.59774	960.65220	-59.17070	-160.12484	985.26112	-99.97390	1.37402	915.78729	-303.94258	-185.12952	976.63586	-197.94876	-164.64826	1393.21148	-171.90791	-48.92823	1351.52440	-2.96150	-94.43683	1359.47317	-356.55176	-22.67286	1352.98112	-161.09003	-22.10966	1354.43597	-204.57880	-60.41993	1220.17204	62.92324	-200.31668	1049.52403	47.53766	-164.13794	1057.34530	108.89270	-147.57989	916.86041	122.06512	-174.22868	787.97955	139.96894	-185.44627	792.68115	175.72490	-54.44740	1249.83525	-415.62510	-85.67243	1010.39445	-400.87100	-31.92772	1040.31654	-449.91004	40.41985	956.03750	-401.32804	99.45181	811.19010	-378.47888	106.54612	813.42414	-412.37441	-33.35346	877.22792	-55.24199	-73.27364	847.32503	-255.60579	-24.09820	870.79815	-70.08532	-65.11429	856.65125	-230.80680	
20	0.19000000	122.58122	499.96537	-62.08160	163.71312	436.68048	-95.33875	131.97337	93.30135	-89.70186	57.83123	66.30675	-106.44382	242.25281	45.00667	-101.80726	267.48078	78.13386	-168.50134	-91.87807	457.09480	-334.06123	-131.67297	368.67137	-339.44804	-415.27507	241.86774	-290.90080	-463.65475	295.53205	-241.40520	-445.59997	116.13299	-310.96531	-396.21503	91.01315	-263.29896	161.73025	321.52055	-71.84956	99.25357	439.27129	-40.73752	94.78767	326.85328	-38.52858	-173.86830	447.28308	-332.36061	-276.06522	380.38262	-328.10011	89.58724	820.10645	-23.79308	118.53646	710.90798	-38.30046	80.22329	674.95924	3.76989	-9.18002	786.62686	25.52260	22.98859	675.84155	9.27188	-66.36397	718.95064	-363.10229	-53.06766	583.10492	-352.08240	-154.31608	711.94708	-288.26026	-141.34637	572.42320	-290.38496	54.43248	962.33211	-57.66457	-148.46448	987.10167	-98.71228	12.92343	917.47166	-302.39121	-173.74349	977.98643	-196.68999	-151.99284	1395.17756	-170.62039	-35.67366	1353.12518	-2.11105	-82.54479	1361.08604	-355.56779	-10.00961	1354.42711	-160.27128	-9.72011	1355.86402	-203.84088	-46.49690	1221.48718	63.41203	-185.87378	1050.38634	48.39810	-149.47423	1058.26457	109.67378	-132.36622	917.84466	122.73176	-158.22829	788.82978	140.69262	-169.52398	793.50745	176.43668	-43.45904	1251.13997	-414.68717	-75.84038	1011.93496	-399.39068	-22.07278	1041.46498	-448.75241	50.14697	956.90080	-400.41131	108.63492	811.83039	-377.62693	115.49615	813.94523	-411.56499	-21.70293	878.98062	-53.77885	-61.60719	848.88960	-254.11725	-12.31173	873.18940	-68.07424	-53.73320	858.25308	-228.62440	
21	0.20000000	128.73154	499.90748	-61.66300	169.17689	435.97881	-94.92828	132.16319	93.08853	-89.82263	57.83092	66.42935	-106.47823	242.39871	44.90960	-101.84797	267.54656	77.45499	-168.88885	-67.38835	458.65387	-334.23046	-106.55446	370.70235	-339.31610	-391.60711	248.22193	-290.33800	-441.03032	301.25972	-240.96953	-420.58557	122.64420	-311.25387	-371.24296	97.82758	-263.35133	165.23387	320.80583	-71.56184	104.61704	439.45841	-40.48650	98.39056	327.16083	-38.32406	-147.69029	449.89547	-332.68222	-250.80983	384.41669	-328.41357	100.37761	820.55298	-22.65261	127.79277	710.88415	-37.36525	89.08046	675.43079	4.70173	1.30087	788.39167	26.72375	31.70136	677.10324	10.10231	-50.93265	720.72317	-361.96853	-33.23613	585.21307	-351.95234	-138.01661	710.44713	-286.49125	-120.38573	571.55247	-289.21152	66.12251	963.99939	-56.36255	-136.93628	989.12135	-97.34768	24.18238	919.44566	-301.11981	-162.52097	979.68250	-195.29902	-139.60967	1397.39628	-169.43877	-22.70414	1354.94452	-1.36185	-70.97362	1362.91160	-354.68154	2.35990	1356.12586	-159.61676	2.37075	1357.52427	-203.25957	-32.74817	1223.06688	63.82382	-171.38289	1051.27824	49.21382	-134.80274	1059.28250	110.41665	-116.90857	918.96137	123.39367	-141.72093	789.77785	141.42030	-153.13216	794.41578	177.13825	-32.72024	1252.67564	-413.81981	-66.28558	1013.70617	-398.04332	-12.53607	1042.86384	-447.70614	59.49168	957.94100	-399.67768	117.38380	812.61622	-377.07002	123.97905	814.61343	-411.07124	-10.18747	880.75868	-52.52860	-50.30034	850.77188	-252.83831	-0.74150	875.56412	-66.37710	-42.64033	860.10516	-226.78867	
22	0.21000000	134.12692	499.81043	-61.05155	173.97848	435.33793	-94.40487	132.25850	92.87751	-89.83957	57.82772	66.51268	-106.46918	242.50133	44.83781	-101.84767	267.57017	76.94680	-169.14458	-42.85939	460.94478	-334.15703	-81.05610	373.15966	-338.91104	-366.95892	253.63959	-289.79717	-417.94620	305.80187	-240.61244	-393.80112	128.10160	-311.61318	-344.56645	103.84855	-263.36257	168.34565	320.19380	-71.16624	109.40381	439.60095	-40.01475	101.61104	327.44098	-37.88371	-121.56063	452.74198	-333.05659	-225.23139	388.15653	-328.86044	110.73372	820.88657	-21.44752	136.47594	710.71850	-36.30666	97.25545	675.83130	5.65819	11.22970	790.19351	27.83035	39.70180	678.38742	10.90769	-35.49973	722.94682	-360.88221	-13.43646	587.95401	-351.73102	-121.84218	709.53367	-285.03229	-99.52620	571.43277	-288.13618	77.66727	965.67449	-55.23589	-125.51752	991.32372	-95.90366	35.22886	921.71993	-300.09722	-151.41020	981.73724	-193.79700	-127.47653	1399.84942	-168.34066	-10.01823	1356.97622	-0.69225	-59.72381	1364.95979	-353.86908	14.44865	1358.08113	-159.09453	14.19909	1359.43070	-202.79686	-19.18889	1224.90033	64.18481	-156.85650	1052.21386	50.01272	-120.10334	1060.39478	111.13240	-101.19878	920.21169	124.03662	-124.75308	790.82906	142.12017	-136.28067	795.41017	177.80476	-22.24776	1254.45245	-413.03047	-57.01168	1015.72639	-396.83437	-3.31178	1044.52450	-446.77599	68.46242	959.18079	-399.12297	125.69258	813.56508	-376.79995	132.00484	815.45141	-410.88177	1.20335	882.57795	-51.47407	-39.28612	852.98205	-251.76242	10.63144	877.92263	-64.98644	-31.77194	862.22209	-225.29819	
23	0.22000000	138.87985	499.72650	-60.25319	178.17143	434.77699	-93.75064	132.28983	92.69973	-89.75339	57.82537	66.56329	-106.42871	242.56815	44.78015	-101.81684	267.56427	76.59102	-169.27886	-18.33329	463.90198	-333.87921	-55.31081	376.00227	-338.33074	-341.56464	258.02284	-289.33190	-394.27262	309.12531	-240.25646	-365.83809	132.41863	-312.02783	-316.66970	108.87436	-263.46767	171.09997	319.69055	-70.65347	113.65543	439.73115	-39.32678	104.47563	327.71737	-37.22871	-95.63206	455.76178	-333.49692	-199.47959	391.51211	-329.36625	120.65827	821.14733	-20.18560	144.64797	710.47838	-35.15538	104.83870	676.21322	6.63686	20.66880	792.04112	28.85818	47.11149	679.72794	11.71107	-19.98623	725.59517	-359.88249	6.39177	591.28533	-351.41283	-105.77467	709.16640	-283.95870	-78.82618	572.03410	-287.28570	89.06455	967.38052	-54.24868	-114.18669	993.70211	-94.42945	46.13637	924.29545	-299.27445	-140.36718	984.13782	-192.23816	-115.55927	1402.50126	-167.30138	2.39076	1359.20842	-0.08445	-48.78761	1367.22932	-353.10793	26.27978	1360.28208	-158.67115	25.81042	1361.58443	-202.41833	-5.84853	1226.97049	64.52844	-142.30404	1053.20189	50.82694	-105.35467	1061.60163	111.83769	-85.23175	921.59379	124.64249	-107.36886	791.98668	142.75410	-118.97214	796.49225	178.40847	-12.04434	1256.47430	-412.32481	-48.02991	1018.00950	-395.77410	5.61186	1046.44930	-445.97172	77.07061	960.63285	-398.74543	133.55814	814.68499	-376.81132	139.59989	816.48037	-410.97983	12.47139	884.45536	-50.59656	-28.48674	855.51270	-250.88173	21.82886	880.28003	-63.87371	-21.06665	864.60943	-224.12144	
